<?xml version="1.0" encoding="UTF-8" standalone="no"?>
<!DOCTYPE svg PUBLIC "-//W3C//DTD SVG 1.1//EN" "http://www.w3.org/Graphics/SVG/1.1/DTD/svg11.dtd">
<svg xmlns="http://www.w3.org/2000/svg" version="1.1" viewBox="0.00 0.00 50.00 50.00">
<rect fill="#000000" x="-1.00" y="-9.50" transform="translate(8.44,10.63) rotate(-26.3)" width="2.00" height="19.00" rx="0.85"/>
<path fill="#000000" d="
  M 25.39 7.35
  L 27.87 2.47
  A 0.85 0.85 0.0 0 1 28.95 2.07
  L 29.30 2.22
  A 0.75 0.74 24.8 0 1 29.68 3.24
  L 24.57 13.53
  Q 24.30 14.07 23.70 14.11
  Q 19.36 14.40 15.99 16.51
  Q 15.45 16.84 15.16 16.28
  L 8.04 2.23
  A 0.15 0.14 -14.2 0 1 8.17 2.02
  L 16.95 1.99
  A 0.29 0.29 0.0 0 1 17.21 2.15
  L 22.22 12.16
  Q 22.51 12.72 22.85 12.19
  L 23.60 11.03
  Q 23.99 10.41 23.66 9.77
  L 20.35 3.34
  A 0.85 0.84 63.9 0 1 20.74 2.18
  L 21.10 2.01
  A 0.74 0.73 63.4 0 1 22.07 2.34
  L 24.69 7.35
  Q 25.04 8.03 25.39 7.35
  Z"
/>
<path fill="#000000" d="
  M 35.04 16.48
  Q 34.79 16.97 34.33 16.68
  Q 31.32 14.78 27.65 14.22
  Q 27.06 14.13 27.33 13.59
  L 33.07 2.17
  Q 33.16 2.00 33.35 2.00
  L 42.12 2.01
  A 0.16 0.16 0.0 0 1 42.26 2.24
  L 35.04 16.48
  Z"
/>
<rect fill="#000000" x="-1.00" y="-9.63" transform="translate(41.94,10.66) rotate(27.9)" width="2.00" height="19.26" rx="0.83"/>
<path fill="#000000" d="
  M 40.97 32.00
  A 15.97 15.97 0.0 0 1 25.00 47.97
  A 15.97 15.97 0.0 0 1 9.03 32.00
  A 15.97 15.97 0.0 0 1 25.00 16.03
  A 15.97 15.97 0.0 0 1 40.97 32.00
  Z
  M 26.0642 21.0981
  A 1.03 0.57 98.7 0 0 26.7834 20.1662
  A 1.03 0.57 98.7 0 0 26.3758 19.0619
  A 1.03 0.57 98.7 0 0 25.6566 19.9938
  A 1.03 0.57 98.7 0 0 26.0642 21.0981
  Z
  M 22.61 19.67
  Q 22.63 20.28 22.89 20.84
  Q 23.20 21.49 23.59 20.88
  Q 24.01 20.24 23.65 19.56
  Q 23.35 19.00 22.80 19.32
  A 0.42 0.41 74.3 0 0 22.61 19.67
  Z
  M 28.8131 21.7039
  A 1.04 0.55 108.9 0 0 29.6703 20.8982
  A 1.04 0.55 108.9 0 0 29.4869 19.7361
  A 1.04 0.55 108.9 0 0 28.6297 20.5418
  A 1.04 0.55 108.9 0 0 28.8131 21.7039
  Z
  M 20.8145 21.8928
  A 1.06 0.55 62.8 0 0 20.8192 20.6986
  A 1.06 0.55 62.8 0 0 19.8455 20.0072
  A 1.06 0.55 62.8 0 0 19.8408 21.2014
  A 1.06 0.55 62.8 0 0 20.8145 21.8928
  Z
  M 31.1421 22.9363
  A 1.05 0.52 128.1 0 0 32.1992 22.4309
  A 1.05 0.52 128.1 0 0 32.4379 21.2837
  A 1.05 0.52 128.1 0 0 31.3808 21.7891
  A 1.05 0.52 128.1 0 0 31.1421 22.9363
  Z
  M 18.50 22.82
  Q 18.23 22.01 17.50 21.60
  Q 16.90 21.25 16.96 21.94
  Q 17.05 22.91 17.98 23.30
  A 0.39 0.39 0.0 0 0 18.50 22.82
  Z
  M 34.8900 23.3665
  A 1.15 0.49 -41.6 0 0 33.7047 23.7636
  A 1.15 0.49 -41.6 0 0 33.1700 24.8935
  A 1.15 0.49 -41.6 0 0 34.3553 24.4964
  A 1.15 0.49 -41.6 0 0 34.8900 23.3665
  Z
  M 16.3837 25.1784
  A 1.03 0.59 36.9 0 0 15.9142 24.0882
  A 1.03 0.59 36.9 0 0 14.7363 23.9416
  A 1.03 0.59 36.9 0 0 15.2058 25.0318
  A 1.03 0.59 36.9 0 0 16.3837 25.1784
  Z
  M 24.27 30.27
  L 24.26 38.27
  A 0.54 0.54 0.0 0 0 24.77 38.81
  L 26.48 38.90
  Q 27.13 38.93 27.13 38.27
  L 27.12 25.60
  A 0.75 0.74 -79.9 0 0 26.64 24.90
  Q 26.02 24.67 25.38 24.87
  A 1.45 1.44 -86.9 0 0 24.54 25.63
  Q 23.65 27.59 21.50 27.50
  Q 20.76 27.47 20.75 28.20
  L 20.73 29.26
  A 0.53 0.53 0.0 0 0 21.26 29.79
  L 23.77 29.78
  Q 24.27 29.77 24.27 30.27
  Z
  M 36.8111 25.9689
  A 1.19 0.50 -30.9 0 0 35.5332 26.1510
  A 1.19 0.50 -30.9 0 0 34.7689 27.1911
  A 1.19 0.50 -30.9 0 0 36.0468 27.0090
  A 1.19 0.50 -30.9 0 0 36.8111 25.9689
  Z
  M 14.52 27.89
  Q 15.02 27.91 14.85 27.43
  Q 14.57 26.67 13.72 26.41
  A 0.43 0.43 0.0 0 0 13.19 26.95
  Q 13.47 27.85 14.52 27.89
  Z
  M 37.8663 29.0791
  A 1.17 0.52 -19.0 0 0 36.5907 28.9683
  A 1.17 0.52 -19.0 0 0 35.6537 29.8409
  A 1.17 0.52 -19.0 0 0 36.9293 29.9517
  A 1.17 0.52 -19.0 0 0 37.8663 29.0791
  Z
  M 12.85 29.38
  A 0.55 0.54 18.3 0 0 12.30 29.65
  Q 12.03 30.11 12.49 30.37
  Q 13.21 30.79 13.97 30.42
  A 0.35 0.34 49.1 0 0 14.01 29.82
  Q 13.50 29.48 12.85 29.38
  Z
  M 37.50 33.05
  A 0.66 0.65 10.0 0 0 37.88 32.79
  Q 38.23 32.32 37.87 32.04
  Q 37.74 31.93 37.56 31.92
  Q 36.75 31.90 36.08 32.17
  Q 35.89 32.25 35.97 32.44
  Q 36.32 33.36 37.50 33.05
  Z
  M 13.8723 32.7922
  A 0.87 0.67 -14.5 0 0 12.8622 32.3613
  A 0.87 0.67 -14.5 0 0 12.1877 33.2278
  A 0.87 0.67 -14.5 0 0 13.1978 33.6587
  A 0.87 0.67 -14.5 0 0 13.8723 32.7922
  Z
  M 35.83 34.86
  A 0.37 0.36 69.5 0 0 35.56 35.46
  Q 36.16 36.19 37.11 36.11
  Q 38.01 36.04 37.37 35.41
  Q 36.80 34.83 35.83 34.86
  Z
  M 13.62 35.47
  Q 13.17 35.52 12.85 35.81
  Q 12.35 36.27 13.00 36.51
  Q 13.80 36.80 14.49 36.11
  A 0.49 0.49 0.0 0 0 14.17 35.28
  Q 13.99 35.27 13.85 35.38
  Q 13.75 35.46 13.62 35.47
  Z
  M 34.90 37.47
  A 0.40 0.40 0.0 0 0 34.43 37.98
  Q 34.72 38.85 35.65 38.97
  Q 36.45 39.07 36.09 38.35
  Q 35.76 37.68 34.90 37.47
  Z
  M 15.9341 37.9928
  A 1.12 0.52 -35.3 0 0 14.7195 38.2156
  A 1.12 0.52 -35.3 0 0 14.1059 39.2872
  A 1.12 0.52 -35.3 0 0 15.3205 39.0644
  A 1.12 0.52 -35.3 0 0 15.9341 37.9928
  Z
  M 34.0905 41.3677
  A 1.04 0.56 48.4 0 0 33.8188 40.2182
  A 1.04 0.56 48.4 0 0 32.7095 39.8123
  A 1.04 0.56 48.4 0 0 32.9812 40.9618
  A 1.04 0.56 48.4 0 0 34.0905 41.3677
  Z
  M 16.1820 41.7757
  A 1.12 0.50 134.0 0 0 17.3197 41.3173
  A 1.12 0.50 134.0 0 0 17.7380 40.1643
  A 1.12 0.50 134.0 0 0 16.6003 40.6227
  A 1.12 0.50 134.0 0 0 16.1820 41.7757
  Z
  M 30.90 43.25
  A 0.43 0.42 71.9 0 0 31.21 43.41
  Q 31.61 43.43 31.67 43.11
  Q 31.85 42.12 30.89 41.52
  Q 30.29 41.14 30.34 41.84
  Q 30.40 42.59 30.90 43.25
  Z
  M 18.9690 43.6430
  A 1.09 0.54 115.6 0 0 19.9270 42.8933
  A 1.09 0.54 115.6 0 0 19.9110 41.6770
  A 1.09 0.54 115.6 0 0 18.9530 42.4267
  A 1.09 0.54 115.6 0 0 18.9690 43.6430
  Z
  M 22.0511 44.7330
  A 1.07 0.51 102.9 0 0 22.7871 43.8039
  A 1.07 0.51 102.9 0 0 22.5289 42.6470
  A 1.07 0.51 102.9 0 0 21.7929 43.5761
  A 1.07 0.51 102.9 0 0 22.0511 44.7330
  Z
  M 28.4375 44.7193
  A 1.15 0.50 79.1 0 0 28.7110 43.4955
  A 1.15 0.50 79.1 0 0 28.0025 42.4607
  A 1.15 0.50 79.1 0 0 27.7290 43.6845
  A 1.15 0.50 79.1 0 0 28.4375 44.7193
  Z
  M 25.3132 44.9597
  A 0.95 0.61 88.6 0 0 25.8998 43.9951
  A 0.95 0.61 88.6 0 0 25.2668 43.0603
  A 0.95 0.61 88.6 0 0 24.6802 44.0249
  A 0.95 0.61 88.6 0 0 25.3132 44.9597
  Z"
/>
</svg>
