<?xml version="1.0" standalone="no"?>
<!DOCTYPE svg PUBLIC "-//W3C//DTD SVG 20010904//EN"
 "http://www.w3.org/TR/2001/REC-SVG-20010904/DTD/svg10.dtd">
<svg version="1.0" xmlns="http://www.w3.org/2000/svg"
 width="50.000000pt" height="50.000000pt" viewBox="0 0 50.000000 50.000000"
 preserveAspectRatio="xMidYMid meet">

<g transform="translate(0.000000,50.000000) scale(0.100000,-0.100000)"
fill="#000000" stroke="none">
<path d="M155 456 c-60 -28 -87 -56 -114 -116 -36 -79 -19 -183 42 -249 33
-36 115 -71 167 -71 52 0 134 35 167 71 34 37 63 110 63 159 0 52 -35 134 -71
167 -37 34 -110 63 -159 63 -27 0 -65 -10 -95 -24z m180 -15 c128 -58 164
-223 72 -328 -101 -115 -283 -88 -348 52 -79 171 104 354 276 276z"/>
<path d="M182 370 c-67 -41 -91 -124 -52 -187 53 -87 167 -96 229 -17 12 15
21 33 21 40 0 23 -47 16 -74 -11 -50 -50 -136 -15 -136 55 0 70 86 105 136 55
27 -27 74 -34 74 -11 0 20 -38 65 -70 81 -40 21 -89 19 -128 -5z m146 -34 c35
-35 20 -45 -18 -12 -85 71 -197 -24 -146 -123 28 -54 97 -66 146 -25 39 34 53
22 17 -14 -23 -22 -36 -27 -77 -27 -43 0 -54 5 -82 33 -28 28 -33 39 -33 81 0
52 25 92 70 112 34 15 96 3 123 -25z"/>
</g>
</svg>
