<?xml version="1.0" encoding="UTF-8" standalone="no"?>
<!DOCTYPE svg PUBLIC "-//W3C//DTD SVG 1.1//EN" "http://www.w3.org/Graphics/SVG/1.1/DTD/svg11.dtd">
<svg xmlns="http://www.w3.org/2000/svg" version="1.1" viewBox="0.00 0.00 50.00 50.00">
<rect fill="#000000" x="-1.00" y="-9.50" transform="translate(8.44,10.63) rotate(-26.3)" width="2.00" height="19.00" rx="0.85"/>
<path fill="#000000" d="
  M 25.39 7.35
  L 27.83 2.54
  Q 28.22 1.77 29.02 2.10
  L 29.30 2.22
  A 0.75 0.75 0.0 0 1 29.68 3.25
  L 24.57 13.54
  Q 24.30 14.07 23.70 14.11
  Q 19.57 14.34 15.98 16.51
  Q 15.45 16.83 15.17 16.28
  L 8.04 2.23
  A 0.15 0.14 -14.2 0 1 8.17 2.02
  L 16.92 1.99
  Q 17.13 1.99 17.23 2.18
  L 22.22 12.16
  Q 22.51 12.72 22.85 12.19
  L 23.60 11.02
  Q 24.00 10.41 23.66 9.76
  L 20.44 3.52
  Q 19.98 2.64 20.85 2.17
  L 21.19 1.99
  A 0.62 0.61 62.0 0 1 22.03 2.25
  L 24.69 7.35
  Q 25.04 8.04 25.39 7.35
  Z"
/>
<path fill="#000000" d="
  M 35.04 16.48
  Q 34.79 16.97 34.32 16.68
  Q 31.32 14.77 27.66 14.24
  A 0.44 0.44 0.0 0 1 27.33 13.60
  L 33.04 2.23
  Q 33.09 2.13 33.20 2.12
  Q 34.62 1.90 42.14 2.04
  A 0.14 0.13 14.3 0 1 42.26 2.24
  L 35.04 16.48
  Z"
/>
<rect fill="#000000" x="-1.00" y="-9.63" transform="translate(41.94,10.66) rotate(27.9)" width="2.00" height="19.26" rx="0.83"/>
<path fill="#000000" d="
  M 40.97 32.00
  A 15.97 15.97 0.0 0 1 25.00 47.97
  A 15.97 15.97 0.0 0 1 9.03 32.00
  A 15.97 15.97 0.0 0 1 25.00 16.03
  A 15.97 15.97 0.0 0 1 40.97 32.00
  Z
  M 26.0624 21.0979
  A 1.03 0.57 98.8 0 0 26.7833 20.1672
  A 1.03 0.57 98.8 0 0 26.3776 19.0621
  A 1.03 0.57 98.8 0 0 25.6567 19.9928
  A 1.03 0.57 98.8 0 0 26.0624 21.0979
  Z
  M 22.65 20.16
  Q 22.77 20.45 22.85 20.75
  Q 23.07 21.55 23.56 20.88
  Q 24.00 20.28 23.67 19.54
  A 0.56 0.55 -37.0 0 0 22.74 19.41
  Q 22.47 19.74 22.65 20.16
  Z
  M 28.8131 21.7039
  A 1.04 0.55 108.9 0 0 29.6703 20.8982
  A 1.04 0.55 108.9 0 0 29.4869 19.7361
  A 1.04 0.55 108.9 0 0 28.6297 20.5418
  A 1.04 0.55 108.9 0 0 28.8131 21.7039
  Z
  M 20.8045 21.8928
  A 1.06 0.55 62.8 0 0 20.8092 20.6986
  A 1.06 0.55 62.8 0 0 19.8355 20.0072
  A 1.06 0.55 62.8 0 0 19.8308 21.2014
  A 1.06 0.55 62.8 0 0 20.8045 21.8928
  Z
  M 31.1436 22.9374
  A 1.05 0.52 128.0 0 0 32.1998 22.4301
  A 1.05 0.52 128.0 0 0 32.4364 21.2826
  A 1.05 0.52 128.0 0 0 31.3802 21.7899
  A 1.05 0.52 128.0 0 0 31.1436 22.9374
  Z
  M 18.50 22.82
  Q 18.23 22.01 17.50 21.60
  Q 16.90 21.25 16.96 21.95
  Q 17.05 22.91 17.97 23.30
  A 0.40 0.39 2.3 0 0 18.50 22.82
  Z
  M 34.8900 23.3665
  A 1.15 0.49 -41.6 0 0 33.7047 23.7636
  A 1.15 0.49 -41.6 0 0 33.1700 24.8935
  A 1.15 0.49 -41.6 0 0 34.3553 24.4964
  A 1.15 0.49 -41.6 0 0 34.8900 23.3665
  Z
  M 16.3837 25.1784
  A 1.03 0.59 36.9 0 0 15.9142 24.0882
  A 1.03 0.59 36.9 0 0 14.7363 23.9416
  A 1.03 0.59 36.9 0 0 15.2058 25.0318
  A 1.03 0.59 36.9 0 0 16.3837 25.1784
  Z
  M 24.69 36.42
  Q 22.86 36.43 24.33 35.34
  Q 26.06 34.06 27.78 32.82
  C 32.60 29.35 28.46 22.78 23.05 24.99
  Q 20.17 26.16 20.08 29.75
  A 0.44 0.44 0.0 0 0 20.46 30.20
  Q 21.47 30.34 22.42 30.15
  Q 22.82 30.07 22.82 29.66
  Q 22.83 27.91 24.17 27.22
  A 1.94 1.94 0.0 0 1 26.99 28.74
  C 27.35 32.24 20.33 33.41 19.70 38.20
  Q 19.62 38.85 20.27 38.85
  L 29.20 38.86
  Q 30.01 38.86 30.00 38.05
  L 29.99 37.06
  Q 29.98 36.39 29.31 36.39
  L 24.69 36.42
  Z
  M 36.8111 25.9689
  A 1.19 0.50 -30.9 0 0 35.5332 26.1510
  A 1.19 0.50 -30.9 0 0 34.7689 27.1911
  A 1.19 0.50 -30.9 0 0 36.0468 27.0090
  A 1.19 0.50 -30.9 0 0 36.8111 25.9689
  Z
  M 14.52 27.89
  Q 15.02 27.91 14.85 27.43
  Q 14.57 26.67 13.72 26.41
  A 0.43 0.43 0.0 0 0 13.19 26.95
  Q 13.47 27.85 14.52 27.89
  Z
  M 37.41 28.84
  Q 36.43 28.81 35.82 29.46
  Q 35.34 29.95 36.02 30.04
  Q 37.10 30.20 37.69 29.43
  Q 38.13 28.86 37.41 28.84
  Z
  M 12.84 29.39
  A 0.54 0.53 18.9 0 0 12.30 29.65
  Q 12.03 30.11 12.49 30.37
  Q 13.22 30.79 13.98 30.42
  A 0.35 0.35 0.0 0 0 14.02 29.82
  Q 13.50 29.47 12.84 29.39
  Z
  M 37.48 33.05
  A 0.68 0.68 0.0 0 0 37.89 32.77
  Q 38.21 32.31 37.87 32.03
  Q 37.74 31.93 37.57 31.92
  Q 36.75 31.90 36.09 32.17
  Q 35.87 32.25 35.96 32.47
  Q 36.32 33.31 37.48 33.05
  Z
  M 13.8723 32.7922
  A 0.87 0.67 -14.5 0 0 12.8622 32.3613
  A 0.87 0.67 -14.5 0 0 12.1877 33.2278
  A 0.87 0.67 -14.5 0 0 13.1978 33.6587
  A 0.87 0.67 -14.5 0 0 13.8723 32.7922
  Z
  M 35.89 34.89
  Q 35.19 34.93 35.62 35.49
  Q 36.16 36.20 37.13 36.11
  Q 37.99 36.03 37.39 35.42
  Q 36.82 34.83 35.89 34.89
  Z
  M 13.58 35.49
  Q 13.21 35.52 12.92 35.75
  Q 12.26 36.29 13.07 36.54
  Q 13.84 36.77 14.50 36.09
  A 0.48 0.48 0.0 0 0 14.20 35.28
  Q 14.01 35.26 13.85 35.38
  Q 13.73 35.47 13.58 35.49
  Z
  M 34.89 37.47
  A 0.39 0.39 0.0 0 0 34.43 37.98
  Q 34.72 38.85 35.65 38.97
  Q 36.44 39.07 36.09 38.35
  Q 35.76 37.67 34.89 37.47
  Z
  M 15.9248 37.9970
  A 1.11 0.52 -35.4 0 0 14.7188 38.2161
  A 1.11 0.52 -35.4 0 0 14.1152 39.2830
  A 1.11 0.52 -35.4 0 0 15.3212 39.0639
  A 1.11 0.52 -35.4 0 0 15.9248 37.9970
  Z
  M 34.0918 41.3665
  A 1.04 0.56 48.3 0 0 33.8181 40.2175
  A 1.04 0.56 48.3 0 0 32.7082 39.8135
  A 1.04 0.56 48.3 0 0 32.9819 40.9625
  A 1.04 0.56 48.3 0 0 34.0918 41.3665
  Z
  M 16.1715 41.8014
  A 1.16 0.49 133.5 0 0 17.3254 41.2973
  A 1.16 0.49 133.5 0 0 17.7685 40.1186
  A 1.16 0.49 133.5 0 0 16.6146 40.6227
  A 1.16 0.49 133.5 0 0 16.1715 41.8014
  Z
  M 30.90 43.25
  A 0.40 0.40 0.0 0 0 31.22 43.41
  Q 31.61 43.43 31.67 43.11
  Q 31.85 42.12 30.89 41.52
  Q 30.30 41.15 30.34 41.84
  Q 30.39 42.59 30.90 43.25
  Z
  M 18.9690 43.6430
  A 1.09 0.54 115.6 0 0 19.9270 42.8933
  A 1.09 0.54 115.6 0 0 19.9110 41.6770
  A 1.09 0.54 115.6 0 0 18.9530 42.4267
  A 1.09 0.54 115.6 0 0 18.9690 43.6430
  Z
  M 22.0511 44.7330
  A 1.07 0.51 102.9 0 0 22.7871 43.8039
  A 1.07 0.51 102.9 0 0 22.5289 42.6470
  A 1.07 0.51 102.9 0 0 21.7929 43.5761
  A 1.07 0.51 102.9 0 0 22.0511 44.7330
  Z
  M 28.4375 44.7193
  A 1.15 0.50 79.1 0 0 28.7110 43.4955
  A 1.15 0.50 79.1 0 0 28.0025 42.4607
  A 1.15 0.50 79.1 0 0 27.7290 43.6845
  A 1.15 0.50 79.1 0 0 28.4375 44.7193
  Z
  M 25.3149 44.9597
  A 0.95 0.61 88.5 0 0 25.8998 43.9940
  A 0.95 0.61 88.5 0 0 25.2651 43.0603
  A 0.95 0.61 88.5 0 0 24.6802 44.0260
  A 0.95 0.61 88.5 0 0 25.3149 44.9597
  Z"
/>
</svg>
