<?xml version="1.0" encoding="UTF-8" standalone="no"?>
<!DOCTYPE svg PUBLIC "-//W3C//DTD SVG 1.1//EN" "http://www.w3.org/Graphics/SVG/1.1/DTD/svg11.dtd">
<svg xmlns="http://www.w3.org/2000/svg" version="1.1" viewBox="0.00 0.00 24.00 24.00">
<path fill="#000000" d="
  M 21.97 12.00
  A 9.97 9.97 0.0 0 1 12.00 21.97
  A 9.97 9.97 0.0 0 1 2.03 12.00
  A 9.97 9.97 0.0 0 1 12.00 2.03
  A 9.97 9.97 0.0 0 1 21.97 12.00
  Z
  M 15.21 8.00
  A 3.21 3.21 0.0 0 0 12.00 4.79
  A 3.21 3.21 0.0 0 0 8.79 8.00
  A 3.21 3.21 0.0 0 0 12.00 11.21
  A 3.21 3.21 0.0 0 0 15.21 8.00
  Z
  M 5.73 16.94
  C 9.31 20.85 15.21 21.17 18.40 16.69
  A 0.54 0.54 0.0 0 0 18.24 15.92
  Q 12.30 12.21 5.92 15.77
  A 0.76 0.75 54.4 0 0 5.73 16.94
  Z"
/>
</svg>
