<?xml version="1.0" encoding="UTF-8" standalone="no"?>
<!DOCTYPE svg PUBLIC "-//W3C//DTD SVG 1.1//EN" "http://www.w3.org/Graphics/SVG/1.1/DTD/svg11.dtd">
<svg xmlns="http://www.w3.org/2000/svg" version="1.1" viewBox="0.00 0.00 50.00 50.00">
<rect fill="#000000" x="-1.00" y="-9.50" transform="translate(8.44,10.63) rotate(-26.3)" width="2.00" height="19.00" rx="0.85"/>
<path fill="#000000" d="
  M 25.39 7.35
  L 27.83 2.54
  Q 28.22 1.77 29.02 2.10
  L 29.30 2.22
  A 0.75 0.74 24.8 0 1 29.68 3.24
  L 24.57 13.54
  Q 24.30 14.07 23.70 14.11
  Q 19.57 14.34 15.98 16.51
  Q 15.45 16.83 15.17 16.28
  L 8.04 2.23
  A 0.15 0.14 -14.2 0 1 8.17 2.02
  L 16.92 1.99
  Q 17.13 1.99 17.23 2.18
  L 22.26 12.23
  A 0.32 0.32 0.0 0 0 22.81 12.26
  L 23.69 10.87
  Q 23.98 10.40 23.73 9.90
  L 20.35 3.34
  A 0.85 0.84 63.9 0 1 20.74 2.18
  L 21.10 2.01
  A 0.74 0.73 63.4 0 1 22.07 2.34
  L 24.69 7.35
  Q 25.04 8.04 25.39 7.35
  Z"
/>
<path fill="#000000" d="
  M 35.04 16.48
  Q 34.79 16.97 34.32 16.68
  Q 31.31 14.77 27.66 14.24
  A 0.45 0.45 0.0 0 1 27.33 13.59
  L 33.02 2.27
  A 0.51 0.50 -76.6 0 1 33.47 1.99
  L 42.12 2.01
  A 0.17 0.16 -76.3 0 1 42.26 2.25
  L 35.04 16.48
  Z"
/>
<rect fill="#000000" x="-1.00" y="-9.63" transform="translate(41.94,10.66) rotate(27.9)" width="2.00" height="19.26" rx="0.83"/>
<path fill="#000000" d="
  M 40.97 32.00
  A 15.97 15.97 0.0 0 1 25.00 47.97
  A 15.97 15.97 0.0 0 1 9.03 32.00
  A 15.97 15.97 0.0 0 1 25.00 16.03
  A 15.97 15.97 0.0 0 1 40.97 32.00
  Z
  M 26.0642 21.0981
  A 1.03 0.57 98.7 0 0 26.7834 20.1662
  A 1.03 0.57 98.7 0 0 26.3758 19.0619
  A 1.03 0.57 98.7 0 0 25.6566 19.9938
  A 1.03 0.57 98.7 0 0 26.0642 21.0981
  Z
  M 22.61 19.68
  Q 22.63 20.28 22.89 20.83
  Q 23.23 21.52 23.61 20.85
  Q 23.95 20.25 23.68 19.58
  Q 23.54 19.22 23.15 19.22
  Q 22.98 19.21 22.82 19.30
  A 0.45 0.44 74.3 0 0 22.61 19.68
  Z
  M 28.8131 21.7039
  A 1.04 0.55 108.9 0 0 29.6703 20.8982
  A 1.04 0.55 108.9 0 0 29.4869 19.7361
  A 1.04 0.55 108.9 0 0 28.6297 20.5418
  A 1.04 0.55 108.9 0 0 28.8131 21.7039
  Z
  M 20.8029 21.8936
  A 1.06 0.55 62.9 0 0 20.8096 20.6995
  A 1.06 0.55 62.9 0 0 19.8371 20.0064
  A 1.06 0.55 62.9 0 0 19.8304 21.2005
  A 1.06 0.55 62.9 0 0 20.8029 21.8936
  Z
  M 31.1436 22.9374
  A 1.05 0.52 128.0 0 0 32.1998 22.4301
  A 1.05 0.52 128.0 0 0 32.4364 21.2826
  A 1.05 0.52 128.0 0 0 31.3802 21.7899
  A 1.05 0.52 128.0 0 0 31.1436 22.9374
  Z
  M 18.50 22.81
  Q 18.23 22.02 17.51 21.61
  Q 16.89 21.25 16.96 21.96
  Q 17.06 22.91 17.96 23.30
  A 0.40 0.40 0.0 0 0 18.50 22.81
  Z
  M 34.8900 23.3665
  A 1.15 0.49 -41.6 0 0 33.7047 23.7636
  A 1.15 0.49 -41.6 0 0 33.1700 24.8935
  A 1.15 0.49 -41.6 0 0 34.3553 24.4964
  A 1.15 0.49 -41.6 0 0 34.8900 23.3665
  Z
  M 16.3837 25.1784
  A 1.03 0.59 36.9 0 0 15.9142 24.0882
  A 1.03 0.59 36.9 0 0 14.7363 23.9416
  A 1.03 0.59 36.9 0 0 15.2058 25.0318
  A 1.03 0.59 36.9 0 0 16.3837 25.1784
  Z
  M 28.14 31.10
  C 33.46 26.97 22.88 20.24 20.04 28.28
  A 0.92 0.91 16.6 0 0 20.69 29.47
  Q 22.58 29.92 23.04 28.12
  Q 23.20 27.50 23.77 27.19
  Q 24.83 26.61 26.20 27.31
  A 1.38 1.38 0.0 0 1 26.80 29.18
  Q 26.10 30.53 24.63 30.46
  Q 23.88 30.42 23.84 31.17
  L 23.80 31.79
  Q 23.75 32.59 24.55 32.52
  C 26.29 32.36 27.57 33.61 26.89 35.44
  A 2.03 2.02 10.2 0 1 24.99 36.76
  Q 22.75 36.75 22.45 34.48
  A 0.53 0.52 86.3 0 0 21.93 34.02
  L 20.07 34.00
  Q 19.67 33.99 19.70 34.39
  C 20.19 40.95 29.82 40.28 30.02 34.74
  Q 30.10 32.50 28.20 31.66
  Q 27.71 31.44 28.14 31.10
  Z
  M 36.8111 25.9689
  A 1.19 0.50 -30.9 0 0 35.5332 26.1510
  A 1.19 0.50 -30.9 0 0 34.7689 27.1911
  A 1.19 0.50 -30.9 0 0 36.0468 27.0090
  A 1.19 0.50 -30.9 0 0 36.8111 25.9689
  Z
  M 14.52 27.89
  Q 15.02 27.91 14.85 27.43
  Q 14.57 26.67 13.73 26.41
  A 0.44 0.43 89.6 0 0 13.19 26.96
  Q 13.47 27.85 14.52 27.89
  Z
  M 37.8663 29.0791
  A 1.17 0.52 -19.0 0 0 36.5907 28.9683
  A 1.17 0.52 -19.0 0 0 35.6537 29.8409
  A 1.17 0.52 -19.0 0 0 36.9293 29.9517
  A 1.17 0.52 -19.0 0 0 37.8663 29.0791
  Z
  M 12.85 29.39
  A 0.55 0.54 -70.3 0 0 12.29 29.66
  Q 12.04 30.11 12.49 30.37
  Q 13.21 30.79 13.97 30.42
  A 0.35 0.35 0.0 0 0 14.02 29.82
  Q 13.50 29.48 12.85 29.39
  Z
  M 37.47 33.05
  A 0.65 0.64 -77.5 0 0 37.87 32.79
  Q 38.23 32.32 37.87 32.04
  Q 37.74 31.93 37.56 31.92
  Q 36.75 31.90 36.09 32.17
  Q 35.90 32.25 35.97 32.44
  Q 36.28 33.32 37.47 33.05
  Z
  M 13.8723 32.7922
  A 0.87 0.67 -14.5 0 0 12.8622 32.3613
  A 0.87 0.67 -14.5 0 0 12.1877 33.2278
  A 0.87 0.67 -14.5 0 0 13.1978 33.6587
  A 0.87 0.67 -14.5 0 0 13.8723 32.7922
  Z
  M 35.84 34.86
  A 0.37 0.37 0.0 0 0 35.56 35.46
  Q 36.16 36.19 37.11 36.11
  Q 38.01 36.04 37.37 35.40
  Q 36.80 34.84 35.84 34.86
  Z
  M 13.58 35.49
  Q 13.17 35.52 12.85 35.81
  Q 12.35 36.27 12.99 36.51
  Q 13.80 36.81 14.50 36.09
  A 0.48 0.48 0.0 0 0 14.20 35.28
  Q 14.00 35.27 13.85 35.39
  Q 13.73 35.48 13.58 35.49
  Z
  M 34.90 37.47
  A 0.40 0.39 -2.8 0 0 34.43 37.98
  Q 34.72 38.85 35.65 38.97
  Q 36.44 39.07 36.09 38.35
  Q 35.76 37.68 34.90 37.47
  Z
  M 15.9329 37.9912
  A 1.12 0.52 -35.4 0 0 14.7188 38.2161
  A 1.12 0.52 -35.4 0 0 14.1071 39.2888
  A 1.12 0.52 -35.4 0 0 15.3212 39.0639
  A 1.12 0.52 -35.4 0 0 15.9329 37.9912
  Z
  M 34.0905 41.3677
  A 1.04 0.56 48.4 0 0 33.8188 40.2182
  A 1.04 0.56 48.4 0 0 32.7095 39.8123
  A 1.04 0.56 48.4 0 0 32.9812 40.9618
  A 1.04 0.56 48.4 0 0 34.0905 41.3677
  Z
  M 16.1820 41.7757
  A 1.12 0.50 134.0 0 0 17.3197 41.3173
  A 1.12 0.50 134.0 0 0 17.7380 40.1643
  A 1.12 0.50 134.0 0 0 16.6003 40.6227
  A 1.12 0.50 134.0 0 0 16.1820 41.7757
  Z
  M 30.86 43.20
  A 0.53 0.53 0.0 0 0 31.38 43.40
  Q 31.63 43.36 31.67 43.10
  Q 31.84 42.11 30.88 41.51
  Q 30.29 41.14 30.34 41.84
  Q 30.39 42.56 30.86 43.20
  Z
  M 18.9690 43.6430
  A 1.09 0.54 115.6 0 0 19.9270 42.8933
  A 1.09 0.54 115.6 0 0 19.9110 41.6770
  A 1.09 0.54 115.6 0 0 18.9530 42.4267
  A 1.09 0.54 115.6 0 0 18.9690 43.6430
  Z
  M 22.0493 44.7326
  A 1.07 0.51 103.0 0 0 22.7869 43.8047
  A 1.07 0.51 103.0 0 0 22.5307 42.6474
  A 1.07 0.51 103.0 0 0 21.7931 43.5753
  A 1.07 0.51 103.0 0 0 22.0493 44.7326
  Z
  M 28.4375 44.7193
  A 1.15 0.50 79.1 0 0 28.7110 43.4955
  A 1.15 0.50 79.1 0 0 28.0025 42.4607
  A 1.15 0.50 79.1 0 0 27.7290 43.6845
  A 1.15 0.50 79.1 0 0 28.4375 44.7193
  Z
  M 25.3151 44.9697
  A 0.96 0.61 88.5 0 0 25.8998 43.9940
  A 0.96 0.61 88.5 0 0 25.2649 43.0503
  A 0.96 0.61 88.5 0 0 24.6802 44.0260
  A 0.96 0.61 88.5 0 0 25.3151 44.9697
  Z"
/>
</svg>
