<?xml version="1.0" encoding="UTF-8" standalone="no"?>
<!DOCTYPE svg PUBLIC "-//W3C//DTD SVG 1.1//EN" "http://www.w3.org/Graphics/SVG/1.1/DTD/svg11.dtd">
<svg xmlns="http://www.w3.org/2000/svg" version="1.1" viewBox="0.00 0.00 475.00 475.00">
<g stroke-width="2.00" fill="none" stroke-linecap="butt">
<path stroke="#80cd85" vector-effect="non-scaling-stroke" d="
  M 75.77 289.83
  Q 75.64 288.80 75.64 287.82
  Q 75.49 222.31 75.59 156.78
  Q 75.59 153.53 72.34 153.53
  L 51.13 153.51
  Q 47.74 153.51 47.74 156.89
  L 47.74 314.05
  Q 47.74 317.49 51.18 317.50
  Q 87.21 317.51 124.56 317.49
  Q 125.79 317.49 126.80 316.79
  A 1.46 1.46 0.0 0 0 127.39 315.87
  Q 127.68 314.27 127.69 312.75
  Q 127.75 302.90 127.59 293.50
  Q 127.53 290.49 124.52 290.49
  L 76.51 290.48
  Q 75.85 290.48 75.77 289.83"
/>
<path stroke="#c78383" vector-effect="non-scaling-stroke" d="
  M 183.40 290.38
  C 177.99 290.12 176.28 286.26 176.27 281.53
  Q 176.21 242.02 176.31 188.71
  Q 176.32 181.73 182.35 180.82
  C 185.71 180.31 191.22 180.54 195.52 180.63
  C 201.53 180.75 203.45 184.50 203.39 189.91
  Q 203.28 198.51 203.46 205.53
  Q 203.54 208.50 206.51 208.50
  L 227.16 208.47
  Q 230.29 208.46 230.35 205.34
  Q 230.56 193.43 230.33 182.15
  C 229.93 163.08 219.21 153.95 200.67 153.59
  Q 185.60 153.30 174.32 153.84
  C 157.15 154.66 148.29 166.35 148.27 182.97
  Q 148.19 243.98 148.29 289.13
  Q 148.31 295.30 150.53 301.26
  C 155.25 313.92 166.92 317.59 179.75 317.56
  Q 191.00 317.54 201.00 317.40
  C 215.11 317.20 226.31 311.67 229.39 296.90
  Q 230.40 292.11 230.43 286.01
  Q 230.49 275.80 230.35 265.32
  A 2.61 2.61 0.0 0 0 227.84 262.75
  Q 216.67 262.36 205.81 262.74
  A 2.42 2.42 0.0 0 0 203.48 265.08
  Q 203.27 272.63 203.41 281.11
  C 203.50 286.19 201.86 290.13 196.05 290.38
  Q 189.38 290.67 183.40 290.38"
/>
<path stroke="#80cd85" vector-effect="non-scaling-stroke" d="
  M 273.71 181.01
  L 273.72 314.61
  A 2.89 2.89 0.0 0 0 276.61 317.50
  L 298.39 317.50
  Q 301.52 317.50 301.52 314.36
  L 301.52 180.83
  A 0.23 0.22 -0.0 0 1 301.75 180.61
  L 325.92 180.57
  A 2.61 2.60 0.3 0 0 328.53 178.00
  Q 328.66 168.78 328.59 159.63
  C 328.57 156.72 328.98 153.56 325.62 153.55
  Q 287.39 153.46 249.45 153.55
  A 2.80 2.79 -0.1 0 0 246.66 156.34
  L 246.60 177.72
  A 2.86 2.86 0.0 0 0 249.47 180.59
  L 273.26 180.56
  A 0.45 0.45 0.0 0 1 273.71 181.01"
/>
<path stroke="#c78383" vector-effect="non-scaling-stroke" d="
  M 394.00 180.80
  C 397.93 181.11 400.07 184.67 400.10 188.52
  Q 400.18 197.05 400.20 205.23
  Q 400.21 208.50 403.49 208.50
  L 423.74 208.47
  Q 427.05 208.47 427.09 205.16
  Q 427.20 193.90 427.11 183.12
  C 426.98 167.42 419.91 155.90 403.15 154.07
  Q 395.25 153.20 379.43 153.54
  C 373.66 153.67 367.89 153.59 362.28 155.49
  C 348.66 160.10 344.98 171.67 344.99 185.13
  Q 345.02 235.98 345.00 286.74
  C 344.99 306.16 354.50 317.16 374.25 317.44
  Q 385.78 317.61 398.42 317.41
  C 417.34 317.12 427.18 306.24 427.13 287.50
  Q 427.10 277.77 427.20 267.24
  C 427.22 265.28 426.87 262.78 424.52 262.72
  Q 412.88 262.44 402.88 262.72
  Q 400.23 262.80 400.21 265.45
  Q 400.16 274.10 400.14 282.17
  Q 400.12 290.16 392.48 290.39
  Q 387.65 290.54 381.77 290.53
  Q 373.05 290.51 373.04 282.11
  Q 372.98 229.19 373.06 188.78
  Q 373.07 181.21 380.24 180.73
  Q 387.01 180.27 394.00 180.80"
/>
</g>
<path fill="#ffffff" d="
  M 224.63 0.00
  L 250.00 0.00
  Q 253.56 0.67 257.15 0.93
  C 305.90 4.39 351.89 23.79 389.35 54.89
  C 436.76 94.27 466.31 149.43 473.64 210.45
  C 474.08 214.17 474.01 219.87 475.00 224.63
  L 475.00 250.24
  Q 474.27 256.23 473.76 262.25
  Q 473.12 269.76 472.38 274.23
  Q 458.68 356.84 397.26 413.12
  C 360.48 446.81 312.72 469.05 262.13 473.78
  Q 256.24 474.33 250.37 475.00
  L 225.25 475.00
  Q 221.35 474.33 217.43 474.11
  Q 211.43 473.77 209.58 473.54
  C 157.32 467.00 109.44 444.57 71.93 407.67
  Q 64.28 400.14 62.06 397.69
  Q 10.86 341.07 1.56 265.22
  Q 1.43 264.21 0.99 257.78
  Q 0.74 254.05 0.00 250.37
  L 0.00 224.50
  Q 0.71 221.32 0.92 218.13
  Q 1.30 212.43 1.30 212.37
  C 7.81 152.07 36.38 97.29 82.39 57.67
  Q 137.47 10.23 210.14 1.52
  Q 210.89 1.43 217.40 0.98
  Q 221.03 0.72 224.63 0.00
  Z
  M 75.77 289.83
  Q 75.64 288.80 75.64 287.82
  Q 75.49 222.31 75.59 156.78
  Q 75.59 153.53 72.34 153.53
  L 51.13 153.51
  Q 47.74 153.51 47.74 156.89
  L 47.74 314.05
  Q 47.74 317.49 51.18 317.50
  Q 87.21 317.51 124.56 317.49
  Q 125.79 317.49 126.80 316.79
  A 1.46 1.46 0.0 0 0 127.39 315.87
  Q 127.68 314.27 127.69 312.75
  Q 127.75 302.90 127.59 293.50
  Q 127.53 290.49 124.52 290.49
  L 76.51 290.48
  Q 75.85 290.48 75.77 289.83
  Z
  M 183.40 290.38
  C 177.99 290.12 176.28 286.26 176.27 281.53
  Q 176.21 242.02 176.31 188.71
  Q 176.32 181.73 182.35 180.82
  C 185.71 180.31 191.22 180.54 195.52 180.63
  C 201.53 180.75 203.45 184.50 203.39 189.91
  Q 203.28 198.51 203.46 205.53
  Q 203.54 208.50 206.51 208.50
  L 227.16 208.47
  Q 230.29 208.46 230.35 205.34
  Q 230.56 193.43 230.33 182.15
  C 229.93 163.08 219.21 153.95 200.67 153.59
  Q 185.60 153.30 174.32 153.84
  C 157.15 154.66 148.29 166.35 148.27 182.97
  Q 148.19 243.98 148.29 289.13
  Q 148.31 295.30 150.53 301.26
  C 155.25 313.92 166.92 317.59 179.75 317.56
  Q 191.00 317.54 201.00 317.40
  C 215.11 317.20 226.31 311.67 229.39 296.90
  Q 230.40 292.11 230.43 286.01
  Q 230.49 275.80 230.35 265.32
  A 2.61 2.61 0.0 0 0 227.84 262.75
  Q 216.67 262.36 205.81 262.74
  A 2.42 2.42 0.0 0 0 203.48 265.08
  Q 203.27 272.63 203.41 281.11
  C 203.50 286.19 201.86 290.13 196.05 290.38
  Q 189.38 290.67 183.40 290.38
  Z
  M 273.71 181.01
  L 273.72 314.61
  A 2.89 2.89 0.0 0 0 276.61 317.50
  L 298.39 317.50
  Q 301.52 317.50 301.52 314.36
  L 301.52 180.83
  A 0.23 0.22 -0.0 0 1 301.75 180.61
  L 325.92 180.57
  A 2.61 2.60 0.3 0 0 328.53 178.00
  Q 328.66 168.78 328.59 159.63
  C 328.57 156.72 328.98 153.56 325.62 153.55
  Q 287.39 153.46 249.45 153.55
  A 2.80 2.79 -0.1 0 0 246.66 156.34
  L 246.60 177.72
  A 2.86 2.86 0.0 0 0 249.47 180.59
  L 273.26 180.56
  A 0.45 0.45 0.0 0 1 273.71 181.01
  Z
  M 394.00 180.80
  C 397.93 181.11 400.07 184.67 400.10 188.52
  Q 400.18 197.05 400.20 205.23
  Q 400.21 208.50 403.49 208.50
  L 423.74 208.47
  Q 427.05 208.47 427.09 205.16
  Q 427.20 193.90 427.11 183.12
  C 426.98 167.42 419.91 155.90 403.15 154.07
  Q 395.25 153.20 379.43 153.54
  C 373.66 153.67 367.89 153.59 362.28 155.49
  C 348.66 160.10 344.98 171.67 344.99 185.13
  Q 345.02 235.98 345.00 286.74
  C 344.99 306.16 354.50 317.16 374.25 317.44
  Q 385.78 317.61 398.42 317.41
  C 417.34 317.12 427.18 306.24 427.13 287.50
  Q 427.10 277.77 427.20 267.24
  C 427.22 265.28 426.87 262.78 424.52 262.72
  Q 412.88 262.44 402.88 262.72
  Q 400.23 262.80 400.21 265.45
  Q 400.16 274.10 400.14 282.17
  Q 400.12 290.16 392.48 290.39
  Q 387.65 290.54 381.77 290.53
  Q 373.05 290.51 373.04 282.11
  Q 372.98 229.19 373.06 188.78
  Q 373.07 181.21 380.24 180.73
  Q 387.01 180.27 394.00 180.80
  Z"
/>
<path fill="#009b0b" d="
  M 75.77 289.83
  Q 75.85 290.48 76.51 290.48
  L 124.52 290.49
  Q 127.53 290.49 127.59 293.50
  Q 127.75 302.90 127.69 312.75
  Q 127.68 314.27 127.39 315.87
  A 1.46 1.46 0.0 0 1 126.80 316.79
  Q 125.79 317.49 124.56 317.49
  Q 87.21 317.51 51.18 317.50
  Q 47.74 317.49 47.74 314.05
  L 47.74 156.89
  Q 47.74 153.51 51.13 153.51
  L 72.34 153.53
  Q 75.59 153.53 75.59 156.78
  Q 75.49 222.31 75.64 287.82
  Q 75.64 288.80 75.77 289.83
  Z"
/>
<path fill="#8f0606" d="
  M 176.27 281.53
  C 176.28 286.26 177.99 290.12 183.40 290.38
  Q 189.38 290.67 196.05 290.38
  C 201.86 290.13 203.50 286.19 203.41 281.11
  Q 203.27 272.63 203.48 265.08
  A 2.42 2.42 0.0 0 1 205.81 262.74
  Q 216.67 262.36 227.84 262.75
  A 2.61 2.61 0.0 0 1 230.35 265.32
  Q 230.49 275.80 230.43 286.01
  Q 230.40 292.11 229.39 296.90
  C 226.31 311.67 215.11 317.20 201.00 317.40
  Q 191.00 317.54 179.75 317.56
  C 166.92 317.59 155.25 313.92 150.53 301.26
  Q 148.31 295.30 148.29 289.13
  Q 148.19 243.98 148.27 182.97
  C 148.29 166.35 157.15 154.66 174.32 153.84
  Q 185.60 153.30 200.67 153.59
  C 219.21 153.95 229.93 163.08 230.33 182.15
  Q 230.56 193.43 230.35 205.34
  Q 230.29 208.46 227.16 208.47
  L 206.51 208.50
  Q 203.54 208.50 203.46 205.53
  Q 203.28 198.51 203.39 189.91
  C 203.45 184.50 201.53 180.75 195.52 180.63
  C 191.22 180.54 185.71 180.31 182.35 180.82
  Q 176.32 181.73 176.31 188.71
  Q 176.21 242.02 176.27 281.53
  Z"
/>
<path fill="#009b0b" d="
  M 273.71 181.01
  A 0.45 0.45 0.0 0 0 273.26 180.56
  L 249.47 180.59
  A 2.86 2.86 0.0 0 1 246.60 177.72
  L 246.66 156.34
  A 2.80 2.79 -0.1 0 1 249.45 153.55
  Q 287.39 153.46 325.62 153.55
  C 328.98 153.56 328.57 156.72 328.59 159.63
  Q 328.66 168.78 328.53 178.00
  A 2.61 2.60 0.3 0 1 325.92 180.57
  L 301.75 180.61
  A 0.23 0.22 0.0 0 0 301.52 180.83
  L 301.52 314.36
  Q 301.52 317.50 298.39 317.50
  L 276.61 317.50
  A 2.89 2.89 0.0 0 1 273.72 314.61
  L 273.71 181.01
  Z"
/>
<path fill="#8f0606" d="
  M 400.10 188.52
  C 400.07 184.67 397.93 181.11 394.00 180.80
  Q 387.01 180.27 380.24 180.73
  Q 373.07 181.21 373.06 188.78
  Q 372.98 229.19 373.04 282.11
  Q 373.05 290.51 381.77 290.53
  Q 387.65 290.54 392.48 290.39
  Q 400.12 290.16 400.14 282.17
  Q 400.16 274.10 400.21 265.45
  Q 400.23 262.80 402.88 262.72
  Q 412.88 262.44 424.52 262.72
  C 426.87 262.78 427.22 265.28 427.20 267.24
  Q 427.10 277.77 427.13 287.50
  C 427.18 306.24 417.34 317.12 398.42 317.41
  Q 385.78 317.61 374.25 317.44
  C 354.50 317.16 344.99 306.16 345.00 286.74
  Q 345.02 235.98 344.99 185.13
  C 344.98 171.67 348.66 160.10 362.28 155.49
  C 367.89 153.59 373.66 153.67 379.43 153.54
  Q 395.25 153.20 403.15 154.07
  C 419.91 155.90 426.98 167.42 427.11 183.12
  Q 427.20 193.90 427.09 205.16
  Q 427.05 208.47 423.74 208.47
  L 403.49 208.50
  Q 400.21 208.50 400.20 205.23
  Q 400.18 197.05 400.10 188.52
  Z"
/>
</svg>
